<?xml version="1.0" encoding="iso-8859-1"?>
<!-- Uploaded to: SVG Repo, www.svgrepo.com, Generator: SVG Repo Mixer Tools -->
<svg version="1.1" id="Layer_1" xmlns="http://www.w3.org/2000/svg" xmlns:xlink="http://www.w3.org/1999/xlink" 
	 viewBox="0 0 500.8 500.8" xml:space="preserve">
<circle style="fill:#FCCC32;" cx="250.4" cy="250.4" r="248.8"/>
<path style="fill:#EFAE0C;" d="M426.4,74.4c96.8,97.6,96.8,254.4,0,352s-254.4,96.8-352,0"/>
<rect x="114.4" y="426.4" style="fill:#DDDAC0;" width="40" height="56"/>
<polyline style="fill:#C6C2A7;" points="114.4,426.4 154.4,426.4 154.4,482.4 "/>
<rect x="346.4" y="426.4" style="fill:#DDDAC0;" width="40" height="56"/>
<polyline style="fill:#C6C2A7;" points="346.4,426.4 386.4,426.4 386.4,482.4 "/>
<polygon style="fill:#A1B7B6;" points="429.6,414.4 250.4,500.8 71.2,414.4 120,172 250.4,77.6 380.8,172 "/>
<polyline style="fill:#8EA5A3;" points="250.4,77.6 380.8,180 429.6,414.4 250.4,500.8 "/>
<polygon style="fill:#A1B7B6;" points="108.8,116.8 250.4,48.8 392,116.8 353.6,302.4 250.4,384 147.2,302.4 "/>
<g>
	<polygon style="fill:#8EA5A3;" points="108.8,116.8 250.4,164 392,116.8 353.6,187.2 250.4,268 147.2,187.2 	"/>
	<polyline style="fill:#8EA5A3;" points="250.4,48.8 392,116.8 353.6,302.4 250.4,384 	"/>
</g>
<polyline style="fill:#829996;" points="250.4,164 392,116.8 379.2,176.8 250.4,268 "/>
<polygon style="fill:#A1B7B6;" points="148,87.2 108,55.2 148,0 187.2,55.2 "/>
<polyline style="fill:#8EA5A3;" points="148,0 187.2,55.2 148,87.2 "/>
<polygon style="fill:#829996;" points="352.8,87.2 313.6,55.2 352.8,0 392.8,55.2 "/>
<polyline style="fill:#8EA5A3;" points="352.8,0 392.8,55.2 352.8,87.2 "/>
<polygon style="fill:#5E6664;" points="194.4,189.6 154.4,177.6 154.4,154.4 194.4,167.2 "/>
<polyline style="fill:#2F423F;" points="194.4,167.2 194.4,189.6 154.4,177.6 "/>
<polygon style="fill:#5E6664;" points="306.4,189.6 346.4,177.6 346.4,154.4 306.4,167.2 "/>
<polyline style="fill:#2F423F;" points="306.4,189.6 346.4,177.6 346.4,154.4 "/>
<g>
	<polygon style="fill:#5E6664;" points="234.4,442.4 234.4,442.4 200.8,392.8 162.4,414.4 162.4,415.2 	"/>
	<polygon style="fill:#5E6664;" points="266.4,442.4 266.4,442.4 300,392.8 338.4,414.4 338.4,415.2 	"/>
</g>
<polyline style="fill:#7B918D;" points="250.4,268 407.2,425.6 429.6,414.4 380.8,172 "/>
</svg>